<svg width="9" height="15" viewBox="0 0 9 15" fill="none" xmlns="http://www.w3.org/2000/svg">
<path d="M5.0814 14.0346C5.3197 13.7314 5.4929 12.5619 5.4929 12.4536C5.4929 12.3454 6.1426 12.3887 6.8573 12.1938C9.4994 11.4791 9.4344 8.27394 6.749 6.75804C6.0127 6.34654 3.3273 6.19494 3.6954 4.54904C3.9553 3.33624 4.8649 3.74774 5.8394 4.22424C6.5108 4.52744 7.0955 4.87394 7.6802 5.17704C8.7197 5.71854 8.6981 4.33244 8.0051 3.74774C7.5719 3.37964 6.9439 3.01144 6.3159 2.72994C6.186 2.66494 6.4457 2.03694 6.2292 1.58214C5.7744 0.650838 4.4751 0.239439 4.4751 1.04074C4.4751 1.14894 4.2801 2.01524 4.2801 2.01524C4.2584 2.01524 1.9629 0.954038 1.0967 3.50954C0.663501 4.78724 1.2049 6.64974 2.8292 7.14784C4.1286 7.55934 6.4891 7.97074 6.3159 9.31344C6.0777 11.1759 2.9158 9.89824 2.8941 9.89824C0.6418 9.33514 -0.8957 10.0714 1.768 11.2625C2.2228 11.4791 3.2406 11.739 3.4572 11.9339C3.6738 12.1288 3.4355 13.3632 3.4355 13.5798C3.4788 14.5327 4.5617 14.7492 5.0814 14.0346Z" fill="#000001"/>
</svg>
